<svg xmlns="http://www.w3.org/2000/svg" viewBox="0 0 64 64" width="64" height="64">
  <rect width="64" height="64" fill="none"/>
  <line x1="12" y1="44" x2="52" y2="44" stroke="#2dd4bf" stroke-width="1.5"/>
  <line x1="12" y1="44" x2="22" y2="20" stroke="#2dd4bf" stroke-width="1.5"/>
  <line x1="52" y1="44" x2="52" y2="20" stroke="#2dd4bf" stroke-width="1.5"/>
  <line x1="22" y1="20" x2="52" y2="20" stroke="#2dd4bf" stroke-width="1.5"/>
  <line x1="12" y1="44" x2="12" y2="20" stroke="#2dd4bf" stroke-width="1.5" stroke-dasharray="3,2"/>
  <line x1="12" y1="20" x2="22" y2="20" stroke="#2dd4bf" stroke-width="1.5" stroke-dasharray="3,2"/>
  <line x1="12" y1="20" x2="52" y2="20" stroke="#2dd4bf" stroke-width="1.5" stroke-dasharray="3,2"/>
  <line x1="52" y1="20" x2="52" y2="44" stroke="#2dd4bf" stroke-width="1.5"/>
  <line x1="22" y1="20" x2="22" y2="44" stroke="#2dd4bf" stroke-width="1.5" stroke-dasharray="3,2"/>
  <line x1="22" y1="44" x2="52" y2="44" stroke="#2dd4bf" stroke-width="1.5" stroke-dasharray="3,2"/>
  <line x1="22" y1="44" x2="12" y2="44" stroke="#2dd4bf" stroke-width="1.5" stroke-dasharray="3,2"/>
  <circle cx="12" cy="44" r="4" fill="#14b8a6"/>
  <circle cx="52" cy="44" r="4" fill="#14b8a6"/>
  <circle cx="22" cy="20" r="4" fill="#0d9488"/>
  <circle cx="52" cy="20" r="4" fill="#0d9488"/>
  <circle cx="32" cy="32" r="5" fill="#2dd4bf"/>
  <circle cx="12" cy="20" r="3.5" fill="#0d9488" opacity="0.6"/>
  <circle cx="22" cy="44" r="3.5" fill="#14b8a6" opacity="0.6"/>
</svg>
