<svg xmlns="http://www.w3.org/2000/svg" viewBox="0 0 64 64" width="64" height="64">
  <rect width="64" height="64" rx="8" fill="#0d1117"/>
  <circle cx="12" cy="14" r="3" fill="#58a6ff" opacity="0.5"/>
  <circle cx="20" cy="22" r="3" fill="#58a6ff" opacity="0.5"/>
  <circle cx="30" cy="30" r="3" fill="#58a6ff" opacity="0.5"/>
  <circle cx="38" cy="36" r="3" fill="#58a6ff" opacity="0.5"/>
  <circle cx="48" cy="44" r="3" fill="#58a6ff" opacity="0.5"/>
  <circle cx="24" cy="38" r="3" fill="#58a6ff" opacity="0.3"/>
  <circle cx="34" cy="42" r="3" fill="#58a6ff" opacity="0.3"/>
  <circle cx="18" cy="46" r="3" fill="#58a6ff" opacity="0.3"/>
  <circle cx="42" cy="50" r="3" fill="#58a6ff" opacity="0.3"/>
  <circle cx="28" cy="52" r="3" fill="#58a6ff" opacity="0.3"/>
  <circle cx="10" cy="12" r="3.5" fill="#3fb950"/>
  <circle cx="16" cy="18" r="3.5" fill="#3fb950"/>
  <circle cx="24" cy="24" r="3.5" fill="#3fb950"/>
  <circle cx="34" cy="30" r="3.5" fill="#3fb950"/>
  <circle cx="44" cy="38" r="3.5" fill="#3fb950"/>
  <circle cx="52" cy="48" r="3.5" fill="#3fb950"/>
  <path d="M10 12 Q18 16 24 24 Q30 28 34 30 Q40 34 44 38 Q48 42 52 48" stroke="#3fb950" stroke-width="2" fill="none" stroke-linecap="round"/>
</svg>
