<svg xmlns="http://www.w3.org/2000/svg" viewBox="0 0 512 512" width="512" height="512">
  <defs>
    <linearGradient id="bg" x1="0%" y1="0%" x2="100%" y2="100%">
      <stop offset="0%" style="stop-color:#1B2838"/>
      <stop offset="100%" style="stop-color:#0D1520"/>
    </linearGradient>
    <linearGradient id="shield" x1="0%" y1="0%" x2="0%" y2="100%">
      <stop offset="0%" style="stop-color:#5B9BD5"/>
      <stop offset="50%" style="stop-color:#3A6FA0"/>
      <stop offset="100%" style="stop-color:#264673"/>
    </linearGradient>
    <linearGradient id="check" x1="0%" y1="0%" x2="100%" y2="100%">
      <stop offset="0%" style="stop-color:#7FD87F"/>
      <stop offset="100%" style="stop-color:#4CAF50"/>
    </linearGradient>
  </defs>
  <rect width="512" height="512" rx="96" fill="url(#bg)"/>
  <g transform="translate(256,240)">
    <path d="M 0 -140 L 120 -90 L 120 20 Q 120 120 0 160 Q -120 120 -120 20 L -120 -90 Z"
          fill="url(#shield)" opacity="0.95"/>
    <path d="M 0 -140 L 120 -90 L 120 20 Q 120 120 0 160 Q -120 120 -120 20 L -120 -90 Z"
          fill="none" stroke="#7FB8E8" stroke-width="4" opacity="0.6"/>
    <path d="M -40 10 L -10 40 L 50 -30"
          fill="none" stroke="url(#check)" stroke-width="18" stroke-linecap="round" stroke-linejoin="round"/>
    <circle cx="80" cy="-60" r="8" fill="#7FD87F" opacity="0.5"/>
    <circle cx="60" cy="-80" r="5" fill="#7FD87F" opacity="0.3"/>
    <circle cx="90" cy="-40" r="4" fill="#7FD87F" opacity="0.2"/>
  </g>
</svg>
